<svg width="13" height="13" viewBox="0 0 13 13" fill="none" xmlns="http://www.w3.org/2000/svg">
<g clip-path="url(#clip0_43_179)">
<path d="M7.74854 3.9209H9.24854C9.57684 3.9209 9.90193 3.98556 10.2052 4.1112C10.5086 4.23684 10.7842 4.42099 11.0163 4.65313C11.2484 4.88528 11.4326 5.16088 11.5582 5.46419C11.6839 5.7675 11.7485 6.09259 11.7485 6.4209C11.7485 6.7492 11.6839 7.07429 11.5582 7.37761C11.4326 7.68092 11.2484 7.95652 11.0163 8.18867C10.7842 8.42081 10.5086 8.60496 10.2052 8.7306C9.90193 8.85623 9.57684 8.9209 9.24854 8.9209H7.74854M4.74854 8.9209H3.24854C2.92023 8.9209 2.59514 8.85623 2.29183 8.7306C1.98851 8.60496 1.71291 8.42081 1.48077 8.18867C1.01193 7.71982 0.748535 7.08394 0.748535 6.4209C0.748535 5.75786 1.01193 5.12197 1.48077 4.65313C1.94961 4.18429 2.58549 3.9209 3.24854 3.9209H4.74854" stroke="white" stroke-linecap="round" stroke-linejoin="round"/>
<path d="M4.24854 6.4209H8.24854" stroke="white" stroke-linecap="round" stroke-linejoin="round"/>
</g>
<defs>
<clipPath id="clip0_43_179">
<rect width="12" height="12" fill="white" transform="translate(0.248535 0.420898)"/>
</clipPath>
</defs>
</svg>
