<svg width="24" height="24" viewBox="0 0 24 24" fill="none" xmlns="http://www.w3.org/2000/svg">
<rect width="24" height="24" rx="12" fill="#62826B"/>
<path d="M16.7727 14.4751V15.9751C16.7732 16.1144 16.7447 16.2522 16.6889 16.3798C16.6331 16.5074 16.5513 16.6219 16.4487 16.7161C16.3461 16.8102 16.225 16.8819 16.093 16.9265C15.9611 16.9711 15.8214 16.9877 15.6827 16.9751C14.1441 16.8079 12.6662 16.2822 11.3677 15.4401C10.1596 14.6725 9.13534 13.6482 8.36767 12.4401C7.52266 11.1357 6.99679 9.65062 6.83267 8.10512C6.82018 7.96686 6.83661 7.8275 6.88092 7.69594C6.92523 7.56437 6.99646 7.44347 7.09005 7.34093C7.18365 7.2384 7.29757 7.15648 7.42457 7.10039C7.55156 7.04429 7.68884 7.01525 7.82767 7.01512H9.32767C9.57032 7.01274 9.80557 7.09866 9.98955 7.25689C10.1735 7.41512 10.2937 7.63485 10.3277 7.87512C10.391 8.35516 10.5084 8.82649 10.6777 9.28012C10.7449 9.45909 10.7595 9.65358 10.7196 9.84056C10.6797 10.0275 10.5871 10.1992 10.4527 10.3351L9.81767 10.9701C10.5294 12.2219 11.5659 13.2583 12.8177 13.9701L13.4527 13.3351C13.5886 13.2007 13.7602 13.108 13.9472 13.0682C14.1342 13.0283 14.3287 13.0429 14.5077 13.1101C14.9613 13.2794 15.4326 13.3968 15.9127 13.4601C16.1556 13.4944 16.3774 13.6167 16.5359 13.8039C16.6945 13.991 16.7788 14.2299 16.7727 14.4751Z" fill="white" stroke="#62826B" stroke-linecap="round" stroke-linejoin="round"/>
</svg>
